<?xml version="1.0" encoding="UTF-8"?>
<svg width="933.3" height="933.3" version="1" viewBox="0 0 700 700" xmlns="http://www.w3.org/2000/svg">
  <path d="m482.6 574.7c1.4 0.9 28.3 22.1 59.7 47.1 31.5 24.9 58.2 45.8 59.4 46.4 7.4 3.6 37.4-22.3 53.6-46.2 5.2-7.6 8.7-15.4 8.7-19.1 0-1.2-3.5-5.8-8.7-11.3-4.9-5.1-15.1-15.9-22.8-24.2-7.7-8.2-16.7-17.7-19.9-21.1l-5.9-6.3h24.5c29.3 0 32.5-0.6 39.8-7.9 8.8-8.8 8.1 14.6 7.8-241.1l-0.3-226.5-2.7-4.7c-1.6-2.5-4.5-6-6.5-7.8-7.9-6.5 16.7-6-319.7-6-294.6 0.1-306.3 0.1-311.4 1.9-6.5 2.3-12.4 7.7-15.1 14.2l-2.1 4.8 0.2 227.3 0.3 227.3 2.2 4.1c1.2 2.2 4 5.7 6.2 7.7 8 7.2-7.6 6.7 212 6.7h197.6l19.7 15.8 19.7 15.7zm156.8-474.6c3.6 4.3 3.1 9.2-1.3 12.6-1.3 1-64.5 1.2-288.4 1.3h-286.8l-2.4-2.5c-3.7-3.6-3-9.8 1.4-13.2 1.3-1 64.5-1.2 288.3-1.3h286.6zm-3.5 52c3.3 1.2 6.1 5.2 6.1 8.9 0 1.2-1.3 3.5-2.9 5.1l-2.9 2.9h-572.4l-2.9-2.9c-4.5-4.5-3.7-10.5 1.9-13.5 2.4-1.3 38-1.5 286.3-1.6 205.1 0 284.5 0.3 286.8 1.1zm3.2 56.8c3.2 3.3 3.6 5.8 1.4 10.1-1 2-2.7 3.2-5.3 3.9-2.5 0.8-93.5 1.1-286.2 1.1-267 0-282.7-0.1-286-1.8-5.7-2.8-6.6-9.7-1.8-14.2 2.2-2 2.3-2 288.6-2h286.4zm-3.2 52.2c3.3 1.2 6.1 5.2 6.1 8.9 0 1.2-1.3 3.5-2.9 5.1l-2.9 2.9h-286.4c-286.3 0-286.4 0-288.6-2-4.8-4.5-3.9-11.4 1.8-14.2 3.3-1.7 19.1-1.8 286.6-1.8 204.6 0 284 0.3 286.3 1.1zm-337.7 62.9-8.9 9h-111.4c-104.1 0-111.6-0.1-114.9-1.8-5.7-2.8-6.6-9.7-1.8-14.2 2.2-2 3-2 124.1-2h121.9zm340.9-6.1c1.6 1.6 2.9 3.9 2.9 5.1 0 3.7-2.8 7.7-6.1 8.9-2.3 0.8-29.7 1.1-92.5 1.1-51.8 0-89.5 0.4-89.8 0.9s1.6 5.1 4.2 10.2c2.7 5.2 5.9 12.9 7.2 17.1l2.4 7.8h82c53.8 0 83.4 0.4 85.8 1.1 2.6 0.7 4.3 1.9 5.3 3.9 2.2 4.3 1.8 6.8-1.4 10.1l-2.9 2.9h-163.1l-1.6-2.3-1.6-2.2-3.9 4.5-4 4.5 9.6 9 9.5 9-10.2 11.5c-24.6 27.5-38.6 42.9-58.7 64.2l-21.3 22.7-9.7-5.9-9.7-6h-153.7c-84.5 0-154.4-0.3-155.3-0.6-2.1-0.8-4.5-5.6-4.5-8.9 0-1.4 1.1-3.7 2.5-5l2.4-2.5h123.9c122.6 0 123.9 0 125.7 2 2.9 3.2 2.2 3.6 14.5-9.6 3.5-3.8 4.9-5.5 3-3.7l-3.5 3.2-8.5-7.9-8.5-7.8 7-7.8c13.6-15.2 60.2-66.3 88.4-96.8 15.7-16.9 28.8-31.3 29-31.8 0.1-0.5-0.5-1.6-1.5-2.3-1.6-1.2 12.4-1.4 100.9-1.5h102.9zm-366.9 52.9c-0.1 0.7-0.7 4.6-1.3 8.7l-1.1 7.5h-103.2c-79.5-0.1-103.5-0.3-104.7-1.3-6-4.6-4.7-13.5 2.4-15.6 1.9-0.5 45-0.9 105.7-0.8 82.8 0.2 102.4 0.4 102.2 1.5zm6.5 62.2 4.1 9-110-0.2-110-0.3-2.4-2.8c-3.3-3.9-3.1-8.1 0.5-11.8l2.9-2.9h210.7zm360.4-6.1c1.6 1.6 2.9 3.9 2.9 5.1 0 3.3-2.6 7.5-5.5 8.8-1.9 0.9-18.2 1.2-62.4 1.2h-59.8l-8.2-9-8.3-9h138.4zm-1.6 52.7c1.9 0.8 4.5 5.5 4.5 8.3 0 1.1-1.2 3.3-2.6 5l-2.6 3.1h-71.4l-5-5.3c-2.7-2.8-6.2-6.7-7.9-8.5l-2.9-3.2h43.1c23.7 0 43.9 0.3 44.8 0.6z"/>
</svg>
